<?xml version="1.0" encoding="utf-8"?>
<!-- Generator: Adobe Illustrator 27.3.1, SVG Export Plug-In . SVG Version: 6.00 Build 0)  -->
<svg version="1.1" id="Слой_1" xmlns="http://www.w3.org/2000/svg" xmlns:xlink="http://www.w3.org/1999/xlink" x="0px" y="0px"
	 viewBox="0 0 146.2 101.6" style="enable-background:new 0 0 146.2 101.6;" xml:space="preserve">
<style type="text/css">
	.st0{display:none;fill:#4C4C4C;}
	.st1{fill:#FFFFFF;}
</style>
<rect x="-22.9" y="-3.2" class="st0" width="192" height="108"/>
<g>
	<g>
		<path class="st1" d="M55.01,44.89h4.38v15.49h2.41v7.08h-4.46v-3.37H38.02v-19.2h4.38v15.49h12.61V44.89z"/>
		<path class="st1" d="M65.32,49.33c1.06-1.54,2.52-2.75,4.36-3.62c1.84-0.87,3.89-1.31,6.13-1.31c2.82,0,5.25,0.68,7.3,2.04
			c2.05,1.36,3.46,3.26,4.24,5.69l-4.57,0.03c-0.33-0.88-0.88-1.64-1.67-2.27c-0.79-0.63-1.66-1.11-2.61-1.43
			c-0.95-0.32-1.84-0.48-2.67-0.48c-1.25,0-2.46,0.26-3.63,0.77c-1.18,0.51-2.14,1.26-2.89,2.26s-1.13,2.17-1.13,3.51
			c0,1.37,0.35,2.54,1.06,3.52s1.65,1.72,2.81,2.23c1.17,0.51,2.43,0.77,3.77,0.77c1.33,0,2.64-0.35,3.93-1.06
			c1.29-0.71,2.26-1.72,2.92-3.04h4.67c-0.83,2.46-2.26,4.35-4.29,5.68c-2.03,1.33-4.45,2-7.25,2c-2.23,0-4.27-0.44-6.12-1.32
			c-1.85-0.88-3.31-2.09-4.37-3.63c-1.06-1.54-1.6-3.25-1.6-5.14C63.73,52.6,64.26,50.87,65.32,49.33z"/>
		<path class="st1" d="M95.48,44.89V59l13.75-14.11h4.36v19.2h-4.36V49.95L95.48,64.09h-4.38v-19.2H95.48z"/>
		<path class="st1" d="M141.94,64.09h-4.57l-2.21-4.07h-12.11l-2.21,4.07h-4.57l10.4-19.2h4.85L141.94,64.09z M129.12,48.83
			l-4.15,7.63h8.28L129.12,48.83z"/>
	</g>
	<g>
		<path class="st1" d="M67.54,68.3v0.99h-0.58v-0.47h-1.85v-2.16h0.62v1.64h0.87v-1.64h0.62v1.64H67.54z"/>
		<path class="st1" d="M70.02,67.91h-1.63c0.03,0.13,0.1,0.24,0.21,0.32c0.11,0.08,0.25,0.12,0.41,0.12c0.11,0,0.21-0.02,0.3-0.05
			c0.09-0.03,0.17-0.09,0.24-0.16l0.33,0.36c-0.2,0.23-0.5,0.35-0.89,0.35c-0.24,0-0.46-0.05-0.65-0.14
			c-0.19-0.09-0.33-0.23-0.43-0.39s-0.15-0.36-0.15-0.57c0-0.21,0.05-0.4,0.15-0.57c0.1-0.17,0.24-0.3,0.41-0.4
			c0.18-0.09,0.37-0.14,0.59-0.14c0.21,0,0.4,0.05,0.57,0.14s0.31,0.22,0.4,0.39c0.1,0.17,0.15,0.37,0.15,0.59
			C70.03,67.75,70.02,67.8,70.02,67.91z M68.55,67.22c-0.1,0.08-0.15,0.19-0.18,0.33h1.06c-0.02-0.14-0.08-0.25-0.18-0.33
			s-0.21-0.12-0.35-0.12C68.77,67.1,68.65,67.14,68.55,67.22z"/>
		<path class="st1" d="M70.51,66.65h0.62v0.84h0.94v-0.84h0.62v2.16h-0.62v-0.81h-0.94v0.81h-0.62V66.65z"/>
		<path class="st1" d="M75.1,67.17h-0.73v1.64h-0.62v-1.64h-0.73v-0.51h2.08V67.17z"/>
		<path class="st1" d="M77.25,66.76c0.16,0.09,0.29,0.22,0.39,0.39c0.09,0.17,0.14,0.36,0.14,0.58c0,0.22-0.05,0.42-0.14,0.58
			c-0.09,0.17-0.22,0.3-0.39,0.39c-0.16,0.09-0.35,0.14-0.55,0.14c-0.28,0-0.49-0.09-0.65-0.26v1.01h-0.62v-2.93h0.6v0.25
			c0.15-0.19,0.38-0.28,0.68-0.28C76.9,66.62,77.09,66.67,77.25,66.76z M76.99,68.17c0.1-0.11,0.15-0.25,0.15-0.43
			s-0.05-0.33-0.15-0.44c-0.1-0.11-0.23-0.16-0.4-0.16c-0.16,0-0.29,0.05-0.39,0.16c-0.1,0.11-0.15,0.25-0.15,0.44
			s0.05,0.33,0.15,0.43c0.1,0.11,0.23,0.16,0.39,0.16C76.76,68.33,76.89,68.28,76.99,68.17z"/>
		<path class="st1" d="M79.75,68.7c-0.18-0.09-0.33-0.23-0.43-0.39s-0.15-0.36-0.15-0.57c0-0.21,0.05-0.4,0.15-0.57
			s0.25-0.3,0.43-0.39c0.18-0.09,0.39-0.14,0.62-0.14c0.23,0,0.43,0.05,0.59,0.14c0.17,0.09,0.29,0.23,0.37,0.41l-0.48,0.26
			c-0.11-0.2-0.27-0.3-0.49-0.3c-0.16,0-0.3,0.05-0.4,0.16c-0.11,0.11-0.16,0.25-0.16,0.44c0,0.18,0.05,0.33,0.16,0.44
			c0.11,0.11,0.24,0.16,0.4,0.16c0.21,0,0.38-0.1,0.49-0.3l0.48,0.26c-0.08,0.17-0.2,0.3-0.37,0.4c-0.17,0.1-0.37,0.14-0.59,0.14
			C80.14,68.84,79.94,68.8,79.75,68.7z"/>
		<path class="st1" d="M83.52,67.17h-0.73v1.64h-0.62v-1.64h-0.73v-0.51h2.08V67.17z"/>
		<path class="st1" d="M85.67,66.76c0.16,0.09,0.29,0.22,0.39,0.39c0.09,0.17,0.14,0.36,0.14,0.58c0,0.22-0.05,0.42-0.14,0.58
			c-0.09,0.17-0.22,0.3-0.39,0.39c-0.17,0.09-0.35,0.14-0.55,0.14c-0.27,0-0.49-0.09-0.65-0.26v1.01h-0.62v-2.93h0.6v0.25
			c0.16-0.19,0.38-0.28,0.68-0.28C85.33,66.62,85.51,66.67,85.67,66.76z M85.41,68.17c0.1-0.11,0.15-0.25,0.15-0.43
			s-0.05-0.33-0.15-0.44c-0.1-0.11-0.23-0.16-0.39-0.16s-0.29,0.05-0.4,0.16c-0.1,0.11-0.15,0.25-0.15,0.44s0.05,0.33,0.15,0.43
			c0.1,0.11,0.24,0.16,0.4,0.16S85.31,68.28,85.41,68.17z"/>
		<path class="st1" d="M88.21,66.86c0.18,0.16,0.27,0.4,0.27,0.72v1.23h-0.58v-0.27c-0.12,0.2-0.34,0.3-0.66,0.3
			c-0.17,0-0.31-0.03-0.43-0.08c-0.12-0.06-0.21-0.13-0.28-0.23c-0.06-0.1-0.1-0.21-0.1-0.34c0-0.2,0.08-0.36,0.23-0.47
			c0.15-0.11,0.38-0.17,0.7-0.17h0.5c0-0.14-0.04-0.24-0.12-0.31c-0.08-0.07-0.21-0.11-0.37-0.11c-0.12,0-0.23,0.02-0.34,0.05
			c-0.11,0.04-0.21,0.08-0.28,0.15l-0.22-0.44c0.12-0.08,0.26-0.15,0.42-0.19s0.33-0.07,0.51-0.07
			C87.77,66.62,88.03,66.7,88.21,66.86z M87.67,68.35c0.08-0.05,0.14-0.12,0.18-0.22v-0.22h-0.43c-0.26,0-0.38,0.08-0.38,0.25
			c0,0.08,0.03,0.14,0.09,0.19c0.06,0.05,0.15,0.07,0.26,0.07C87.5,68.42,87.59,68.4,87.67,68.35z"/>
		<path class="st1" d="M90.83,67.17H90.1v1.64h-0.62v-1.64h-0.73v-0.51h2.08V67.17z"/>
		<path class="st1" d="M93.16,67.91h-1.63c0.03,0.13,0.1,0.24,0.21,0.32s0.25,0.12,0.41,0.12c0.11,0,0.21-0.02,0.3-0.05
			c0.09-0.03,0.17-0.09,0.24-0.16l0.33,0.36c-0.2,0.23-0.5,0.35-0.89,0.35c-0.24,0-0.46-0.05-0.65-0.14
			c-0.19-0.09-0.33-0.23-0.43-0.39s-0.15-0.36-0.15-0.57c0-0.21,0.05-0.4,0.15-0.57c0.1-0.17,0.24-0.3,0.41-0.4
			c0.17-0.09,0.37-0.14,0.59-0.14c0.21,0,0.4,0.05,0.57,0.14c0.17,0.09,0.3,0.22,0.4,0.39c0.1,0.17,0.15,0.37,0.15,0.59
			C93.17,67.75,93.17,67.8,93.16,67.91z M91.7,67.22c-0.1,0.08-0.16,0.19-0.18,0.33h1.06c-0.02-0.14-0.08-0.25-0.18-0.33
			c-0.1-0.08-0.21-0.12-0.35-0.12C91.91,67.1,91.79,67.14,91.7,67.22z"/>
		<path class="st1" d="M95.38,67.17h-1.11v1.64h-0.62v-2.16h1.73V67.17z"/>
		<path class="st1" d="M95.71,66.65h0.62v1.28l1.05-1.28h0.57v2.16h-0.62v-1.28l-1.04,1.28h-0.58V66.65z"/>
		<path class="st1" d="M98.96,68.7c-0.18-0.09-0.33-0.23-0.43-0.39s-0.15-0.36-0.15-0.57c0-0.21,0.05-0.4,0.15-0.57
			s0.25-0.3,0.43-0.39c0.18-0.09,0.39-0.14,0.62-0.14c0.23,0,0.43,0.05,0.59,0.14c0.17,0.09,0.29,0.23,0.37,0.41l-0.48,0.26
			c-0.11-0.2-0.27-0.3-0.49-0.3c-0.16,0-0.3,0.05-0.4,0.16c-0.11,0.11-0.16,0.25-0.16,0.44c0,0.18,0.05,0.33,0.16,0.44
			c0.11,0.11,0.24,0.16,0.4,0.16c0.21,0,0.38-0.1,0.49-0.3l0.48,0.26c-0.08,0.17-0.2,0.3-0.37,0.4c-0.17,0.1-0.37,0.14-0.59,0.14
			C99.35,68.84,99.15,68.8,98.96,68.7z"/>
		<path class="st1" d="M101.88,67.99h-0.32v0.82h-0.62v-2.16h0.62v0.84h0.34l0.59-0.84h0.67l-0.75,1.03l0.81,1.12h-0.74
			L101.88,67.99z"/>
		<path class="st1" d="M103.5,66.65h0.62v1.28l1.05-1.28h0.57v2.16h-0.62v-1.28l-1.04,1.28h-0.58V66.65z"/>
		<path class="st1" d="M107.7,68.81l-0.47-0.66l-0.49,0.66h-0.68l0.83-1.09l-0.8-1.07h0.7l0.46,0.63l0.47-0.63h0.67l-0.8,1.05
			l0.83,1.1H107.7z"/>
		<path class="st1" d="M109.85,66.65h0.62v1.28l1.05-1.28h0.57v2.16h-0.62v-1.28l-1.04,1.28h-0.58V66.65z"/>
		<path class="st1" d="M113.1,68.7c-0.18-0.09-0.33-0.23-0.43-0.39s-0.15-0.36-0.15-0.57c0-0.21,0.05-0.4,0.15-0.57
			s0.25-0.3,0.43-0.39c0.18-0.09,0.39-0.14,0.62-0.14c0.23,0,0.43,0.05,0.59,0.14c0.17,0.09,0.29,0.23,0.37,0.41l-0.48,0.26
			c-0.11-0.2-0.27-0.3-0.49-0.3c-0.16,0-0.3,0.05-0.4,0.16c-0.11,0.11-0.16,0.25-0.16,0.44c0,0.18,0.05,0.33,0.16,0.44
			c0.11,0.11,0.24,0.16,0.4,0.16c0.21,0,0.38-0.1,0.49-0.3l0.48,0.26c-0.08,0.17-0.2,0.3-0.37,0.4c-0.17,0.1-0.37,0.14-0.59,0.14
			C113.49,68.84,113.29,68.8,113.1,68.7z"/>
		<path class="st1" d="M117.1,66.65v2.16h-0.62v-1.64h-0.68l-0.02,0.38c-0.01,0.28-0.04,0.52-0.08,0.71
			c-0.04,0.19-0.11,0.33-0.21,0.44c-0.1,0.11-0.23,0.16-0.4,0.16c-0.09,0-0.2-0.02-0.32-0.05l0.03-0.51
			c0.04,0.01,0.07,0.01,0.09,0.01c0.09,0,0.16-0.03,0.21-0.1c0.05-0.07,0.08-0.16,0.09-0.26c0.02-0.11,0.03-0.25,0.04-0.42
			l0.03-0.87H117.1z"/>
		<path class="st1" d="M119.79,67.91h-1.63c0.03,0.13,0.1,0.24,0.21,0.32s0.25,0.12,0.41,0.12c0.11,0,0.21-0.02,0.3-0.05
			c0.09-0.03,0.17-0.09,0.24-0.16l0.33,0.36c-0.2,0.23-0.5,0.35-0.89,0.35c-0.24,0-0.46-0.05-0.65-0.14
			c-0.19-0.09-0.33-0.23-0.43-0.39s-0.15-0.36-0.15-0.57c0-0.21,0.05-0.4,0.15-0.57c0.1-0.17,0.24-0.3,0.41-0.4
			c0.17-0.09,0.37-0.14,0.59-0.14c0.21,0,0.4,0.05,0.57,0.14c0.17,0.09,0.3,0.22,0.4,0.39c0.1,0.17,0.15,0.37,0.15,0.59
			C119.8,67.75,119.8,67.8,119.79,67.91z M118.33,67.22c-0.1,0.08-0.16,0.19-0.18,0.33h1.06c-0.02-0.14-0.08-0.25-0.18-0.33
			c-0.1-0.08-0.21-0.12-0.35-0.12C118.54,67.1,118.42,67.14,118.33,67.22z"/>
		<path class="st1" d="M122.68,68.3v0.98h-0.58v-0.46h-1.51v0.46H120V68.3h0.09c0.13,0,0.23-0.08,0.28-0.24
			c0.05-0.15,0.08-0.38,0.1-0.66l0.03-0.75h1.88v1.64H122.68z M120.98,67.98c-0.03,0.14-0.07,0.24-0.14,0.32h0.91v-1.13h-0.71
			l-0.01,0.28C121.02,67.66,121,67.84,120.98,67.98z"/>
		<path class="st1" d="M123.47,68.7c-0.18-0.09-0.32-0.23-0.42-0.39s-0.15-0.36-0.15-0.57c0-0.21,0.05-0.4,0.15-0.57
			s0.24-0.3,0.42-0.39s0.38-0.14,0.61-0.14c0.23,0,0.43,0.05,0.61,0.14c0.18,0.09,0.32,0.23,0.42,0.39s0.15,0.36,0.15,0.57
			c0,0.21-0.05,0.4-0.15,0.57s-0.24,0.3-0.42,0.39c-0.18,0.1-0.38,0.14-0.61,0.14C123.85,68.84,123.65,68.8,123.47,68.7z
			 M124.48,68.17c0.1-0.11,0.15-0.25,0.15-0.43s-0.05-0.33-0.15-0.44c-0.1-0.11-0.23-0.16-0.39-0.16s-0.29,0.05-0.4,0.16
			c-0.1,0.11-0.16,0.25-0.16,0.44s0.05,0.33,0.16,0.43c0.1,0.11,0.24,0.16,0.4,0.16S124.37,68.28,124.48,68.17z"/>
		<path class="st1" d="M127.72,68.2c0,0.2-0.07,0.35-0.22,0.45c-0.15,0.11-0.37,0.16-0.66,0.16h-1.15v-2.16h1.1
			c0.27,0,0.48,0.05,0.63,0.15c0.15,0.1,0.23,0.23,0.23,0.41c0,0.11-0.03,0.2-0.08,0.28s-0.13,0.15-0.23,0.19
			C127.59,67.77,127.72,67.94,127.72,68.2z M126.26,67.54h0.47c0.22,0,0.33-0.08,0.33-0.23c0-0.15-0.11-0.23-0.33-0.23h-0.47V67.54z
			 M127.13,68.15c0-0.08-0.03-0.14-0.08-0.18c-0.05-0.04-0.14-0.06-0.25-0.06h-0.54v0.48h0.53
			C127.02,68.39,127.13,68.31,127.13,68.15z"/>
		<path class="st1" d="M129.79,66.86c0.18,0.16,0.27,0.4,0.27,0.72v1.23h-0.58v-0.27c-0.12,0.2-0.34,0.3-0.66,0.3
			c-0.17,0-0.31-0.03-0.43-0.08c-0.12-0.06-0.21-0.13-0.28-0.23c-0.06-0.1-0.1-0.21-0.1-0.34c0-0.2,0.08-0.36,0.23-0.47
			c0.15-0.11,0.38-0.17,0.7-0.17h0.5c0-0.14-0.04-0.24-0.12-0.31c-0.08-0.07-0.21-0.11-0.37-0.11c-0.12,0-0.23,0.02-0.34,0.05
			c-0.11,0.04-0.21,0.08-0.28,0.15l-0.22-0.44c0.12-0.08,0.26-0.15,0.42-0.19s0.33-0.07,0.51-0.07
			C129.35,66.62,129.61,66.7,129.79,66.86z M129.26,68.35c0.08-0.05,0.14-0.12,0.18-0.22v-0.22h-0.43c-0.26,0-0.38,0.08-0.38,0.25
			c0,0.08,0.03,0.14,0.09,0.19c0.06,0.05,0.15,0.07,0.26,0.07C129.08,68.42,129.18,68.4,129.26,68.35z"/>
		<path class="st1" d="M130.6,66.65h0.62v0.84h0.94v-0.84h0.62v2.16h-0.62v-0.81h-0.94v0.81h-0.62V66.65z"/>
		<path class="st1" d="M133.39,66.65h0.62v1.28l1.05-1.28h0.57v2.16h-0.62v-1.28l-1.04,1.28h-0.58V66.65z"/>
		<path class="st1" d="M136.23,66.65h0.62v1.28l1.05-1.28h0.57v2.16h-0.62v-1.28l-1.04,1.28h-0.58V66.65z M136.6,65.8h0.41
			c0,0.09,0.03,0.17,0.08,0.22c0.05,0.05,0.12,0.08,0.22,0.08c0.1,0,0.17-0.03,0.22-0.08c0.05-0.05,0.08-0.12,0.08-0.22h0.42
			c0,0.41-0.24,0.62-0.71,0.62C136.84,66.42,136.6,66.22,136.6,65.8z"/>
		<path class="st1" d="M65.11,70.66h0.62v1.28l1.05-1.28h0.57v2.16h-0.62v-1.28l-1.05,1.28h-0.58V70.66z"/>
		<path class="st1" d="M70.7,70.87c0.18,0.16,0.27,0.4,0.27,0.72v1.23h-0.58v-0.27c-0.12,0.2-0.34,0.3-0.66,0.3
			c-0.17,0-0.31-0.03-0.43-0.08s-0.21-0.13-0.28-0.23c-0.06-0.1-0.1-0.21-0.1-0.34c0-0.2,0.08-0.36,0.23-0.47s0.38-0.17,0.7-0.17
			h0.5c0-0.14-0.04-0.24-0.12-0.31c-0.08-0.07-0.21-0.11-0.37-0.11c-0.11,0-0.23,0.02-0.34,0.05s-0.21,0.08-0.28,0.15L69,70.89
			c0.12-0.08,0.26-0.15,0.42-0.19c0.16-0.05,0.33-0.07,0.51-0.07C70.26,70.63,70.52,70.71,70.7,70.87z M70.16,72.35
			c0.08-0.05,0.14-0.12,0.18-0.22v-0.22h-0.43c-0.26,0-0.38,0.08-0.38,0.25c0,0.08,0.03,0.14,0.09,0.19
			c0.06,0.05,0.15,0.07,0.26,0.07C69.99,72.43,70.08,72.4,70.16,72.35z"/>
		<path class="st1" d="M71.51,70.66h0.62v0.84h0.94v-0.84h0.62v2.16h-0.62v-0.81h-0.94v0.81h-0.62V70.66z"/>
		<path class="st1" d="M75.9,70.87c0.18,0.16,0.27,0.4,0.27,0.72v1.23h-0.58v-0.27c-0.12,0.2-0.34,0.3-0.66,0.3
			c-0.17,0-0.31-0.03-0.43-0.08c-0.12-0.06-0.21-0.13-0.28-0.23c-0.06-0.1-0.1-0.21-0.1-0.34c0-0.2,0.08-0.36,0.23-0.47
			c0.15-0.11,0.38-0.17,0.7-0.17h0.5c0-0.14-0.04-0.24-0.12-0.31c-0.08-0.07-0.21-0.11-0.37-0.11c-0.11,0-0.23,0.02-0.34,0.05
			c-0.11,0.04-0.21,0.08-0.28,0.15l-0.22-0.44c0.12-0.08,0.26-0.15,0.42-0.19c0.17-0.05,0.33-0.07,0.51-0.07
			C75.46,70.63,75.72,70.71,75.9,70.87z M75.37,72.35c0.08-0.05,0.14-0.12,0.18-0.22v-0.22h-0.43c-0.26,0-0.38,0.08-0.38,0.25
			c0,0.08,0.03,0.14,0.09,0.19c0.06,0.05,0.15,0.07,0.26,0.07C75.19,72.43,75.28,72.4,75.37,72.35z"/>
		<path class="st1" d="M78.78,70.66v2.16h-0.62v-1.64h-0.68l-0.02,0.38c-0.01,0.28-0.04,0.52-0.08,0.71
			c-0.04,0.19-0.11,0.33-0.21,0.44c-0.1,0.11-0.23,0.16-0.4,0.16c-0.09,0-0.2-0.02-0.33-0.05l0.03-0.51
			c0.04,0.01,0.07,0.01,0.09,0.01c0.09,0,0.16-0.03,0.21-0.1c0.05-0.07,0.08-0.16,0.09-0.26c0.02-0.11,0.03-0.25,0.04-0.42
			l0.03-0.87H78.78z"/>
		<path class="st1" d="M79.38,70.66H80v1.28l1.05-1.28h0.57v2.16H81v-1.28l-1.04,1.28h-0.58V70.66z"/>
		<path class="st1" d="M83.9,71.88c0.07,0.08,0.11,0.18,0.11,0.3c0,0.14-0.05,0.26-0.14,0.36c-0.09,0.1-0.22,0.18-0.38,0.24
			c-0.16,0.06-0.35,0.08-0.55,0.08c-0.17,0-0.33-0.02-0.5-0.05c-0.16-0.03-0.31-0.09-0.45-0.16l0.17-0.44
			c0.23,0.11,0.48,0.16,0.75,0.16c0.15,0,0.26-0.02,0.35-0.07c0.08-0.04,0.13-0.11,0.13-0.19c0-0.07-0.03-0.12-0.09-0.16
			c-0.06-0.04-0.14-0.05-0.26-0.05h-0.44v-0.39h0.38c0.11,0,0.19-0.02,0.25-0.05s0.09-0.09,0.09-0.15c0-0.07-0.04-0.12-0.11-0.16
			c-0.07-0.04-0.18-0.06-0.31-0.06c-0.21,0-0.44,0.05-0.68,0.15l-0.15-0.43c0.3-0.13,0.59-0.2,0.87-0.2c0.2,0,0.37,0.02,0.52,0.07
			c0.15,0.05,0.27,0.12,0.36,0.21c0.09,0.09,0.13,0.2,0.13,0.32c0,0.1-0.03,0.19-0.09,0.27s-0.15,0.15-0.25,0.19
			C83.73,71.74,83.83,71.8,83.9,71.88z"/>
		<path class="st1" d="M86.07,70.87c0.18,0.16,0.27,0.4,0.27,0.72v1.23h-0.58v-0.27c-0.12,0.2-0.34,0.3-0.66,0.3
			c-0.17,0-0.31-0.03-0.43-0.08c-0.12-0.06-0.21-0.13-0.28-0.23c-0.06-0.1-0.1-0.21-0.1-0.34c0-0.2,0.08-0.36,0.23-0.47
			c0.15-0.11,0.38-0.17,0.7-0.17h0.5c0-0.14-0.04-0.24-0.12-0.31c-0.08-0.07-0.21-0.11-0.37-0.11c-0.12,0-0.23,0.02-0.34,0.05
			c-0.11,0.04-0.21,0.08-0.28,0.15l-0.22-0.44c0.12-0.08,0.26-0.15,0.42-0.19s0.33-0.07,0.51-0.07
			C85.63,70.63,85.89,70.71,86.07,70.87z M85.53,72.35c0.08-0.05,0.14-0.12,0.18-0.22v-0.22h-0.43c-0.26,0-0.38,0.08-0.38,0.25
			c0,0.08,0.03,0.14,0.09,0.19c0.06,0.05,0.15,0.07,0.26,0.07C85.36,72.43,85.45,72.4,85.53,72.35z"/>
	</g>
	<g>
		<g>
			<rect x="49.55" y="39.79" class="st1" width="40.88" height="2.22"/>
		</g>
		<g>
			<rect x="9.32" y="68.31" class="st1" width="10.97" height="2.22"/>
		</g>
		<g>
			<rect x="10.04" y="31.28" class="st1" width="27.57" height="2.22"/>
		</g>
		<g>
			<rect x="52.7" y="16.46" class="st1" width="24.66" height="2.22"/>
		</g>
		<g>
			<path class="st1" d="M64.49,9.06v2.22H50.74l-6.88,6.88c-0.28,0.53-1.03,0.53-1.92,0.53l-20.81,0v-2.22c0,0,18.15,0,21.28,0
				c1.42-1.42,7.01-7.01,7.08-7.08l0.32-0.33L64.49,9.06z"/>
		</g>
		<g>
			<path class="st1" d="M45.65,5.55l-5.25,5.25c-0.22,0.31-0.65,0.47-1.28,0.47l-7.78,0V9.06c0,0,5.96,0,7.67,0l5.07-5.07
				L45.65,5.55z"/>
		</g>
		<g>
			<rect x="70.68" y="23.87" class="st1" width="13.34" height="2.22"/>
		</g>
		<g>
			<rect x="64.02" y="75.71" class="st1" width="20" height="2.22"/>
		</g>
		<g>
			<rect x="57.36" y="83.12" class="st1" width="20" height="2.22"/>
		</g>
		<g>
			<polygon class="st1" points="67.59,90.53 67.59,92.75 58.59,92.75 54.63,96.71 53.06,95.14 57.67,90.53 			"/>
		</g>
		<g>
			<rect x="33.56" y="90.53" class="st1" width="13.52" height="2.22"/>
		</g>
		<g>
			<rect x="14.47" y="75.71" class="st1" width="30.01" height="2.22"/>
		</g>
		<g>
			<path class="st1" d="M51.59,70.53l-21.58,0l-7.41-7.41c-2.64,0-15.85,0-15.85,0V60.9h13.76c2.92,0,3.15,0,3.42,0.41l6.99,6.99
				l20.66,0V70.53z"/>
		</g>
		<g>
			<path class="st1" d="M55.46,73.82l-9.3,9.3H21.13v2.22h25.95L57.4,75.03C56.8,74.54,56.17,74.08,55.46,73.82z"/>
		</g>
		<g>
			<g>
				<polygon class="st1" points="88.46,31.28 88.46,33.5 67.91,33.5 60.5,26.09 14.47,26.09 14.47,23.87 61.42,23.87 68.83,31.28 
									"/>
			</g>
		</g>
		<g>
			<g>
				<polygon class="st1" points="59.14,31.28 59.14,33.5 48.9,33.5 41.49,40.9 32.28,40.9 17.35,55.6 5.74,55.6 5.74,53.38 
					16.45,53.38 31.38,38.68 40.57,38.68 47.98,31.28 				"/>
			</g>
		</g>
		<g>
			<path class="st1" d="M53.85,93.56c-1.31,0-2.36,1.06-2.36,2.36c0,1.3,1.06,2.36,2.36,2.36c1.3,0,2.36-1.06,2.36-2.36
				C56.21,94.62,55.15,93.56,53.85,93.56z"/>
		</g>
		<g>
			<path class="st1" d="M67.59,89.27c-1.3,0-2.36,1.06-2.36,2.36c0,1.3,1.06,2.36,2.36,2.36c1.31,0,2.36-1.06,2.36-2.36
				C69.96,90.33,68.9,89.27,67.59,89.27z"/>
		</g>
		<g>
			<path class="st1" d="M77.36,81.87c-1.3,0-2.36,1.06-2.36,2.36c0,1.3,1.06,2.36,2.36,2.36c1.31,0,2.36-1.06,2.36-2.36
				C79.72,82.92,78.66,81.87,77.36,81.87z"/>
		</g>
		<g>
			<path class="st1" d="M84.02,74.46c-1.3,0-2.36,1.06-2.36,2.36c0,1.3,1.06,2.36,2.36,2.36c1.31,0,2.36-1.06,2.36-2.36
				C86.38,75.52,85.32,74.46,84.02,74.46z"/>
		</g>
		<g>
			<path class="st1" d="M56.21,72.1c-1.3,0-2.36,1.06-2.36,2.36c0,1.3,1.06,2.36,2.36,2.36c1.31,0,2.36-1.06,2.36-2.36
				C58.57,73.15,57.51,72.1,56.21,72.1z"/>
		</g>
		<g>
			<path class="st1" d="M88.46,30.02c-1.3,0-2.36,1.06-2.36,2.36c0,1.3,1.06,2.36,2.36,2.36c1.31,0,2.36-1.06,2.36-2.36
				C90.82,31.08,89.76,30.02,88.46,30.02z"/>
		</g>
		<g>
			<path class="st1" d="M84.02,22.62c-1.3,0-2.36,1.06-2.36,2.36c0,1.3,1.06,2.36,2.36,2.36c1.31,0,2.36-1.06,2.36-2.36
				C86.38,23.67,85.32,22.62,84.02,22.62z"/>
		</g>
		<g>
			<path class="st1" d="M77.36,15.21c-1.3,0-2.36,1.06-2.36,2.36c0,1.3,1.06,2.36,2.36,2.36c1.31,0,2.36-1.06,2.36-2.36
				C79.72,16.27,78.66,15.21,77.36,15.21z"/>
		</g>
		<g>
			<path class="st1" d="M64.49,7.8c-1.3,0-2.36,1.06-2.36,2.36c0,1.3,1.06,2.36,2.36,2.36c1.31,0,2.36-1.06,2.36-2.36
				C66.85,8.86,65.79,7.8,64.49,7.8z"/>
		</g>
		<g>
			<path class="st1" d="M43.7,3.31c-1.31,0-2.36,1.06-2.36,2.36c0,1.3,1.06,2.36,2.36,2.36c1.31,0,2.36-1.06,2.36-2.36
				C46.06,4.37,45,3.31,43.7,3.31z"/>
		</g>
		<g>
			<path class="st1" d="M31.34,7.8c-1.31,0-2.36,1.06-2.36,2.36c0,1.3,1.06,2.36,2.36,2.36c1.31,0,2.36-1.06,2.36-2.36
				C33.71,8.86,32.65,7.8,31.34,7.8z"/>
		</g>
		<g>
			<path class="st1" d="M21.13,15.21c-1.31,0-2.36,1.06-2.36,2.36c0,1.3,1.06,2.36,2.36,2.36c1.31,0,2.36-1.06,2.36-2.36
				C23.5,16.27,22.44,15.21,21.13,15.21z"/>
		</g>
		<g>
			<path class="st1" d="M14.47,22.62c-1.31,0-2.36,1.06-2.36,2.36c0,1.3,1.06,2.36,2.36,2.36c1.31,0,2.36-1.06,2.36-2.36
				C16.84,23.67,15.78,22.62,14.47,22.62z"/>
		</g>
		<g>
			<path class="st1" d="M9.32,67.05c-1.31,0-2.36,1.06-2.36,2.36c0,1.3,1.06,2.36,2.36,2.36c1.31,0,2.36-1.06,2.36-2.36
				C11.68,68.11,10.63,67.05,9.32,67.05z"/>
		</g>
		<g>
			<path class="st1" d="M29.48,52.85c-1.31,0-2.36,1.06-2.36,2.36c0,1.3,1.06,2.36,2.36,2.36c1.31,0,2.36-1.06,2.36-2.36
				C31.84,53.91,30.79,52.85,29.48,52.85z"/>
		</g>
		<g>
			<path class="st1" d="M6.76,59.65c-1.31,0-2.36,1.06-2.36,2.36c0,1.3,1.06,2.36,2.36,2.36c1.31,0,2.36-1.06,2.36-2.36
				C9.12,60.71,8.06,59.65,6.76,59.65z"/>
		</g>
		<g>
			<path class="st1" d="M49.55,38.54c-1.31,0-2.36,1.06-2.36,2.36c0,1.3,1.06,2.36,2.36,2.36c1.3,0,2.36-1.06,2.36-2.36
				C51.92,39.6,50.86,38.54,49.55,38.54z"/>
		</g>
		<g>
			<path class="st1" d="M44.49,74.46c-1.31,0-2.36,1.06-2.36,2.36c0,1.3,1.06,2.36,2.36,2.36c1.3,0,2.36-1.06,2.36-2.36
				C46.85,75.52,45.79,74.46,44.49,74.46z"/>
		</g>
		<g>
			<path class="st1" d="M51.59,67.05c-1.3,0-2.36,1.06-2.36,2.36c0,1.3,1.06,2.36,2.36,2.36c1.31,0,2.36-1.06,2.36-2.36
				C53.95,68.11,52.9,67.05,51.59,67.05z"/>
		</g>
		<g>
			<rect x="6.76" y="38.68" class="st1" width="14.82" height="2.22"/>
		</g>
		<g>
			<path class="st1" d="M21.58,37.43c-1.3,0-2.36,1.06-2.36,2.36c0,1.3,1.06,2.36,2.36,2.36c1.31,0,2.36-1.06,2.36-2.36
				C23.95,38.49,22.89,37.43,21.58,37.43z"/>
		</g>
		<g>
			<path class="st1" d="M6.76,37.43c-1.31,0-2.36,1.06-2.36,2.36c0,1.3,1.06,2.36,2.36,2.36c1.31,0,2.36-1.06,2.36-2.36
				C9.12,38.49,8.06,37.43,6.76,37.43z"/>
		</g>
		<g>
			<path class="st1" d="M59.14,30.02c-1.3,0-2.36,1.06-2.36,2.36c0,1.3,1.06,2.36,2.36,2.36c1.31,0,2.36-1.06,2.36-2.36
				C61.5,31.08,60.44,30.02,59.14,30.02z"/>
		</g>
		<g>
			<path class="st1" d="M37.16,30.02c-1.31,0-2.36,1.06-2.36,2.36c0,1.3,1.06,2.36,2.36,2.36c1.31,0,2.36-1.06,2.36-2.36
				C39.53,31.08,38.47,30.02,37.16,30.02z"/>
		</g>
		<g>
			<path class="st1" d="M10.04,30.02c-1.31,0-2.36,1.06-2.36,2.36c0,1.3,1.06,2.36,2.36,2.36c1.31,0,2.36-1.06,2.36-2.36
				C12.4,31.08,11.34,30.02,10.04,30.02z"/>
		</g>
		<g>
			<path class="st1" d="M5.74,52.13c-1.31,0-2.36,1.06-2.36,2.36c0,1.3,1.06,2.36,2.36,2.36c1.31,0,2.36-1.06,2.36-2.36
				C8.1,53.19,7.04,52.13,5.74,52.13z"/>
		</g>
		<g>
			<path class="st1" d="M53.51,15.21c-1.31,0-2.36,1.06-2.36,2.36c0,1.3,1.06,2.36,2.36,2.36c1.31,0,2.36-1.06,2.36-2.36
				C55.87,16.27,54.82,15.21,53.51,15.21z"/>
		</g>
		<g>
			<path class="st1" d="M70.68,22.62c-1.31,0-2.36,1.06-2.36,2.36c0,1.3,1.06,2.36,2.36,2.36c1.3,0,2.36-1.06,2.36-2.36
				C73.04,23.67,71.98,22.62,70.68,22.62z"/>
		</g>
		<g>
			<path class="st1" d="M62.56,74.46c-1.3,0-2.36,1.06-2.36,2.36c0,1.3,1.06,2.36,2.36,2.36c1.31,0,2.36-1.06,2.36-2.36
				C64.92,75.52,63.86,74.46,62.56,74.46z"/>
		</g>
		<g>
			<path class="st1" d="M57.36,81.87c-1.3,0-2.36,1.06-2.36,2.36c0,1.3,1.06,2.36,2.36,2.36c1.31,0,2.36-1.06,2.36-2.36
				C59.72,82.92,58.67,81.87,57.36,81.87z"/>
		</g>
		<g>
			<path class="st1" d="M90.82,38.54c-1.31,0-2.36,1.06-2.36,2.36c0,1.3,1.06,2.36,2.36,2.36c1.31,0,2.36-1.06,2.36-2.36
				C93.18,39.6,92.12,38.54,90.82,38.54z"/>
		</g>
		<g>
			<path class="st1" d="M20.3,67.05c-1.31,0-2.36,1.06-2.36,2.36c0,1.3,1.06,2.36,2.36,2.36c1.3,0,2.36-1.06,2.36-2.36
				C22.66,68.11,21.6,67.05,20.3,67.05z"/>
		</g>
		<g>
			<rect x="4.88" y="46.09" class="st1" width="9.2" height="2.22"/>
		</g>
		<g>
			<path class="st1" d="M5.33,44.84c-1.31,0-2.36,1.06-2.36,2.36c0,1.3,1.06,2.36,2.36,2.36c1.31,0,2.36-1.06,2.36-2.36
				C7.69,45.89,6.63,44.84,5.33,44.84z"/>
		</g>
		<g>
			<path class="st1" d="M14.08,44.84c-1.31,0-2.36,1.06-2.36,2.36c0,1.3,1.06,2.36,2.36,2.36c1.3,0,2.36-1.06,2.36-2.36
				C16.44,45.89,15.39,44.84,14.08,44.84z"/>
		</g>
		<g>
			<path class="st1" d="M14.47,74.46c-1.31,0-2.36,1.06-2.36,2.36c0,1.3,1.06,2.36,2.36,2.36c1.31,0,2.36-1.06,2.36-2.36
				C16.84,75.52,15.78,74.46,14.47,74.46z"/>
		</g>
		<g>
			<path class="st1" d="M21.13,81.87c-1.31,0-2.36,1.06-2.36,2.36c0,1.3,1.06,2.36,2.36,2.36c1.31,0,2.36-1.06,2.36-2.36
				C23.5,82.92,22.44,81.87,21.13,81.87z"/>
		</g>
		<g>
			<path class="st1" d="M33.56,89.27c-1.31,0-2.36,1.06-2.36,2.36c0,1.3,1.06,2.36,2.36,2.36c1.31,0,2.36-1.06,2.36-2.36
				C35.93,90.33,34.87,89.27,33.56,89.27z"/>
		</g>
		<g>
			<path class="st1" d="M47.08,89.27c-1.31,0-2.36,1.06-2.36,2.36c0,1.3,1.06,2.36,2.36,2.36c1.31,0,2.36-1.06,2.36-2.36
				C49.44,90.33,48.38,89.27,47.08,89.27z"/>
		</g>
	</g>
</g>
</svg>
